<?xml version="1.0" standalone="no"?>
<!DOCTYPE svg PUBLIC "-//W3C//DTD SVG 20010904//EN"
 "http://www.w3.org/TR/2001/REC-SVG-20010904/DTD/svg10.dtd">
<svg version="1.0" xmlns="http://www.w3.org/2000/svg"
 width="512.000000pt" height="512.000000pt" viewBox="0 0 512.000000 512.000000"
 preserveAspectRatio="xMidYMid meet">

<g transform="translate(0.000000,512.000000) scale(0.100000,-0.100000)"
fill="#000000" stroke="none">
<path d="M2323 5110 c-593 -58 -1154 -323 -1573 -743 -403 -403 -648 -904
-732 -1492 -20 -140 -17 -504 6 -660 39 -278 121 -541 247 -794 331 -667 931
-1152 1657 -1340 509 -132 1067 -98 1560 94 349 137 639 330 907 606 205 210
340 404 465 663 119 246 190 474 232 741 31 200 31 550 0 750 -43 273 -114
500 -237 750 -123 251 -262 448 -459 652 -399 413 -897 669 -1476 758 -124 19
-466 27 -597 15z m580 -175 c680 -107 1263 -470 1636 -1019 417 -614 531
-1380 310 -2073 -244 -761 -811 -1328 -1572 -1572 -903 -288 -1915 0 -2533
723 -301 350 -487 758 -560 1228 -25 158 -25 518 0 676 110 703 481 1285 1061
1667 338 222 697 345 1130 389 84 8 434 -4 528 -19z"/>
<path d="M2295 4583 c-169 -22 -429 -98 -587 -171 -432 -200 -789 -554 -991
-982 -82 -173 -158 -431 -180 -607 l-4 -33 82 0 82 0 7 62 c4 34 21 113 37
175 159 619 623 1115 1230 1317 104 34 288 76 335 76 23 0 24 2 24 85 0 47 -1
84 -2 84 -2 -1 -16 -4 -33 -6z"/>
<path d="M2790 4505 l0 -82 62 -7 c34 -4 113 -21 175 -37 619 -159 1119 -627
1317 -1232 36 -108 76 -284 76 -331 0 -26 0 -26 84 -26 l83 0 -14 88 c-103
654 -524 1223 -1118 1512 -190 93 -418 164 -602 188 l-63 9 0 -82z"/>
<path d="M2348 4105 c-232 -32 -457 -118 -655 -250 l-62 -41 58 -58 58 -57 46
31 c77 52 208 117 300 149 400 140 842 92 1202 -129 l80 -49 57 56 57 57 -62
41 c-318 213 -701 301 -1079 250z"/>
<path d="M2222 3585 c-326 -112 -577 -363 -686 -687 -38 -112 -40 -108 53
-108 l78 0 30 83 c97 270 314 476 596 567 l37 12 0 79 c0 93 3 91 -108 54z"/>
<path d="M2790 3531 l0 -78 78 -28 c253 -89 464 -297 553 -547 l32 -88 78 0
c93 0 91 -4 53 108 -109 325 -362 577 -688 687 -109 37 -106 38 -106 -54z"/>
<path d="M1258 3417 c-138 -214 -211 -411 -243 -655 -50 -376 38 -752 250
-1069 l41 -62 58 58 57 58 -36 54 c-88 131 -166 326 -202 505 -27 133 -24 395
5 531 39 180 111 355 203 490 l31 46 -59 58 -58 58 -47 -72z"/>
<path d="M3756 3431 l-57 -58 36 -54 c52 -77 129 -240 158 -335 48 -152 61
-247 61 -424 0 -177 -13 -272 -61 -424 -29 -95 -106 -258 -158 -335 l-36 -54
57 -58 58 -58 41 62 c211 316 300 696 250 1070 -32 242 -115 462 -250 664
l-41 62 -58 -58z"/>
<path d="M2411 3130 c-205 -54 -368 -218 -421 -425 -98 -384 211 -758 605
-732 110 8 200 38 289 97 159 107 250 263 263 455 26 395 -351 705 -736 605z
m254 -155 c83 -22 147 -60 206 -122 235 -249 96 -657 -245 -716 -127 -21 -263
21 -359 112 -181 171 -181 453 1 623 109 102 254 140 397 103z"/>
<path d="M537 2298 c21 -168 97 -430 171 -590 202 -436 564 -798 1000 -1000
160 -74 422 -150 590 -171 l32 -4 0 84 c0 81 -1 83 -24 83 -47 0 -231 42 -335
76 -607 202 -1071 698 -1230 1317 -16 62 -33 141 -37 175 l-7 62 -82 0 -82 0
4 -32z"/>
<path d="M1510 2314 c0 -28 49 -163 86 -237 129 -256 353 -450 626 -541 112
-38 108 -40 108 53 l0 79 -37 12 c-283 91 -503 302 -598 573 l-28 77 -78 0
c-65 0 -79 -3 -79 -16z"/>
<path d="M3440 2293 c-89 -275 -302 -501 -560 -593 l-90 -33 0 -78 c0 -92 -3
-91 106 -54 259 87 465 256 599 491 49 86 99 207 110 267 l7 37 -80 0 -80 0
-12 -37z"/>
<path d="M4416 2268 c-4 -34 -21 -113 -37 -175 -159 -619 -627 -1120 -1232
-1317 -108 -36 -284 -76 -331 -76 -26 0 -26 0 -26 -83 l0 -84 59 8 c873 120
1586 823 1724 1702 l14 87 -82 0 -82 0 -7 -62z"/>
<path d="M1688 1363 l-57 -58 72 -46 c156 -101 272 -153 437 -200 438 -123
907 -48 1287 206 l62 41 -57 57 -57 56 -80 -49 c-364 -224 -818 -270 -1215
-123 -99 36 -213 94 -288 144 -24 16 -44 29 -45 29 -2 0 -28 -26 -59 -57z"/>
</g>
</svg>
